<svg width="813" height="854" xmlns="http://www.w3.org/2000/svg" xmlns:xlink="http://www.w3.org/1999/xlink" xml:space="preserve" overflow="hidden"><defs><clipPath id="clip0"><rect x="455" y="625" width="813" height="854"/></clipPath></defs><g clip-path="url(#clip0)" transform="translate(-455 -625)"><path d="M643.05 706C693.744 740.88 690.624 751.693 742.969 791.863 727.91 812.079 732.697 795.198 717.069 839.403 686.349 911.913 677.009 996.091 675.79 1067.98 673.599 1208.67 747.375 1308.07 866 1409.34 858.151 1408.66 767.991 1436.61 718.005 1421.53 668.02 1406.45 627.402 1387.83 566.089 1318.87 473.59 1215.09 464.736 1079.32 484.94 952.858 498.699 866.732 593.237 744.689 643.05 706Z" fill="#8AD08A" fill-rule="evenodd"/><path d="M832.374 1386.69C798.024 1363.49 746.981 1294.91 728.168 1257.62 685.636 1173.32 667.498 1083.35 676.075 988.389 677.519 972.411 678.513 949.352 682.917 934.391L684.233 935.369C688.115 924.011 689.81 911.98 693.351 900.481 722.56 805.645 787.54 715.427 867.032 659 922.825 700.858 981.593 767.341 1011.44 831.93 1025.57 862.152 1036.46 893.899 1043.9 926.597 1045.08 931.809 1049.27 955.456 1051.66 956.92 1055.68 972.537 1056.67 1000.9 1056.94 1017.02 1058.35 1101.49 1036.47 1194.47 996.582 1268.14 978.815 1300.95 901.599 1386.17 870.462 1406 856.384 1405.79 847.824 1384.84 832.374 1386.69Z" fill="#8AD08A" fill-rule="evenodd"/><path d="M993.763 794.816C1036.97 754.444 1045.18 748.524 1093.28 707 1130.47 733.565 1178.34 803.82 1214.53 862.271 1242.26 924.35 1267.11 1008.51 1259.66 1084.32 1252.21 1160.12 1214.52 1267.94 1169.82 1317.11 1135.99 1363.85 1040.03 1423.67 975.729 1427.69 922.863 1431 883.355 1406.69 871 1406.54 985.448 1316.6 1055.6 1193.86 1058.71 1065.68 1060.55 1002.9 1056.16 928.309 1029.32 869.492 1026.14 862.611 1023.38 835.497 1016.89 830.974 1009.47 819.351 1003.68 811.841 993.763 794.816Z" fill="#8AD08A" fill-rule="evenodd"/><path d="M170.37 0C335.9 158.287 298.75 303.043 297.777 415.912 296.803 528.781 209.034 621.667 164.53 677.214 120.026 732.762 2.62118 788.8 0.0476001 760.345-2.52598 731.891 99.3708 581.449 137.923 506.485 176.475 431.52 206.412 339.238 211.821 254.824 217.229 170.41 191.868 114.81 170.37 0Z" fill="#FAD9CA" fill-rule="evenodd" transform="matrix(-1 0 0 1 757 711)"/><path d="M870.342 1465C830.576 1438.22 771.486 1359.06 749.707 1316.01 700.47 1218.7 679.473 1114.85 689.402 1005.23 691.074 986.783 692.224 960.166 697.323 942.896L698.846 944.025C703.341 930.914 705.303 917.025 709.402 903.751 743.215 794.279 818.439 690.136 910.463 625 942.616 649.98 793.871 879.891 779.237 1049.91 764.604 1219.93 895.778 1421.27 870.342 1465Z" fill="#CAEEFB" fill-rule="evenodd"/><path d="M1210.58 790.627C1239.62 857.532 1276.41 1020.95 1264.8 1116.67 1253.19 1212.4 1186.07 1308.58 1140.91 1364.97 1095.74 1421.36 1041.53 1456.24 1010.81 1472 1017.43 1465.59 948.932 1445.59 956.599 1439.74 1082.42 1343.68 1157.75 1241.77 1172.53 1099.56 1177.27 1003.17 1147.67 767.439 1090.51 715.243 1135.11 697.9 1181.53 723.722 1210.58 790.627Z" fill="#FEFBB8" fill-rule="evenodd"/><path d="M739.784 781.589C772.561 730.94 817.324 679.432 866.353 643.974 870.426 645.778 882.66 655.648 886.22 658.611 930.638 695.557 962.661 735.271 994.865 782.492 1011.82 765.79 1073.23 708.609 1091.81 696.753 1105.21 705.977 1122.05 723.677 1133.61 735.679 1182.85 786.851 1217.71 841.328 1242.04 908.382 1281.24 1016.8 1275.81 1136.34 1226.94 1240.76 1165.21 1371.64 1014.89 1483.59 868.475 1413.27 864.783 1412.45 845.487 1421.3 839.57 1423.29 816.279 1431.13 791.811 1434.89 767.238 1434.42 695.123 1432.97 630.099 1395.52 581.293 1344.21 504.757 1262.67 463.713 1154.1 467.165 1042.34 468.467 998.057 474.064 967.598 486.658 925.825 516.797 825.852 567.482 765.402 641.185 695.973 668.206 716.292 711.201 757.865 739.784 781.589ZM1001.61 794.99C1005.38 804.363 1013.04 818.806 1017.68 828.261 1024.96 843.489 1032.75 868.601 1038.19 878.999 1052.29 927.689 1057.87 955.784 1063.2 1005.84 1063.32 1032.37 1063.84 1059.25 1061.53 1085.08 1052.2 1189.35 1009.71 1295.19 930.281 1365.63 925.441 1369.92 918.61 1375.59 914.426 1380.29 902.281 1388.34 890.241 1396.55 878.316 1404.92 903.517 1417.85 936.814 1423.99 965.049 1423.03 1080.07 1419.14 1178.66 1323.7 1221.36 1222.4 1244.4 1167.76 1257.77 1103.94 1256.17 1044.82 1253.41 956.179 1220.62 866.82 1168.21 795.573 1146.52 766.096 1118.22 736.953 1091.8 711.921 1067.08 729.108 1021.83 772.088 1001.61 794.99ZM714.95 829.56 733.253 794.825C703.496 766.464 673.066 738.82 641.985 711.918 544.72 802.644 483.385 907.582 478.845 1043.95 476.023 1150.85 515.141 1254.61 587.838 1333.05 660.638 1410.75 751.888 1446.92 853.834 1404.9 840.449 1397.24 827.99 1389.55 816.139 1379.6 796.075 1362.38 774.154 1337.58 757.834 1316.45 696.157 1236.58 668.151 1137.65 670.228 1037.41 670.89 1005.49 675.253 973.559 679.18 942.009 683.358 918.548 693.772 887.563 701.018 864.156 705.826 852.868 710.384 840.985 714.95 829.56ZM689.792 955.75C685.526 969.691 684.563 991.177 683.163 1006.07 674.857 1094.55 692.424 1178.38 733.621 1256.93 751.843 1291.68 801.283 1355.58 834.555 1377.2 844.319 1384.81 855.242 1391.15 866.085 1397.05 879.572 1389.62 892.337 1380.95 904.214 1371.15 934.373 1352.67 976.397 1297.31 993.605 1266.74 1032.24 1198.09 1053.43 1111.45 1052.06 1032.74 1051.8 1017.73 1050.85 991.294 1046.96 976.742 1046.76 969.277 1044.15 955.308 1042.74 947.488 1025.89 854.31 986.375 774.221 919.301 706.671 902.583 689.832 886.363 672.817 866.393 659.211 769.771 733.407 710.118 835.867 689.792 955.75Z" fill="#3A3A3A" fill-rule="evenodd"/></g></svg>